PathFileType	4	(X/Y/Z)	KinectSkeleton.trc																																																	
DataRate	CameraRate	NumFrames	NumMarkers	Units	OrigDataRate	OrigDataStartFrame	OrigNumFrames																																													
60	60	26	17	mm	60	66	300																																													
Frame#	Time	Neck			ShoulderMid			R.Shoulder			L.Shoulder			R.Elbow			L.Elbow			R.Wrist			L.Wrist			HipCenter			R.Hip			L.Hip			R.Knee			L.Knee			R.Ankle			L.Ankle			R.Foot			L.Foot		
		X1	Y1	Z1	X2	Y2	Z2	X3	Y3	Z3	X4	Y4	Z4	X5	Y5	Z5	X6	Y6	Z6	X7	Y7	Z7	X8	Y8	Z8	X9	Y9	Z9	X10	Y10	Z10	X11	Y11	Z11	X12	Y12	Z12	X13	Y13	Z13	X14	Y14	Z14	X15	Y15	Z15	X16	Y16	Z16	X17	Y17	Z17
																																																				
66	3.926	-1249.247	1374.742	541.443	-1249.247	1374.742	541.443	-1235.074	1297.821	707.178	-1244.138	1292.145	366.582	-1299.416	1023.035	782.321	-1307.068	1016.931	317.058	-1208.001	797.943	800.34	-1202.38	800.334	316.651	-1270.977	819.074	572.972	-1271.005	824.899	658.056	-1270.946	812.614	478.617	-1327.328	419.081	722.783	-1325.991	404.735	423.613	-1411.617	30.476	774.662	-1406.569	19.114	375.83	-1278.843	-79.503	821.961	-1247.865	-88.515	344.425
67	3.996	-1241.174	1377.107	540.971	-1241.174	1377.107	540.971	-1228.931	1301.744	707.921	-1238.24	1296.317	365.21	-1290.745	1025.807	783.391	-1302.621	1020.807	315.654	-1198.917	800.251	800.515	-1196.406	804.384	316.187	-1268.304	820.936	572.73	-1268.084	826.492	658.014	-1268.547	814.775	478.153	-1325.023	419.781	722.265	-1323.721	405.977	423.406	-1411.134	30.627	773.665	-1404.249	19.424	376.031	-1277.799	-78.865	821.946	-1246.381	-89.995	344.035
68	4.045	-1229.187	1376.011	539.459	-1229.187	1376.011	539.459	-1217.261	1300.777	706.214	-1228.533	1296.969	363.651	-1281.389	1026.5	783.832	-1290.265	1021.614	312.737	-1192.228	800.195	799.117	-1185.296	805.045	313.675	-1262.578	821.321	576.91	-1262.757	828.123	661.957	-1262.379	813.779	482.596	-1321.979	422.214	724.602	-1320.947	406.485	425.62	-1409.872	33.885	773.789	-1403.595	21.366	375.99	-1279.076	-78.201	821.926	-1247.363	-89.688	343.629
69	4.093	-1224.636	1374.506	540.671	-1224.636	1374.506	540.671	-1211.406	1300.103	707.174	-1226.086	1295.455	365.162	-1273.825	1025.405	782.728	-1282.417	1019.904	311.944	-1191.895	796.963	799.747	-1179.219	802.987	308.081	-1259.7	821.158	581.705	-1259.877	829.015	666.509	-1259.503	812.446	487.66	-1320.324	423.664	726.698	-1318.811	406.279	428.776	-1408.377	35.827	773.664	-1401.702	22.211	377.048	-1281.747	-80.55	821.583	-1247.313	-90.503	343.655
70	4.138	-1213.936	1373.154	539.452	-1213.936	1373.154	539.452	-1203.111	1298.896	706.141	-1217.755	1293.046	364.497	-1270.417	1025.534	781.62	-1275.663	1018.128	310.696	-1183.605	799.069	798.606	-1170.44	802.369	306.304	-1255.965	820.762	581.677	-1257.097	828.866	666.396	-1254.71	811.774	487.727	-1319.472	424.1	726.713	-1316.642	406.054	430.374	-1409.49	36.961	773.504	-1404.969	23.219	380.501	-1282.433	-78.021	823.2	-1248.959	-84.74	340.346
71	4.185	-1208.918	1373.288	539.175	-1208.918	1373.288	539.175	-1200.22	1298.224	705.923	-1213.595	1292.357	364.447	-1267.873	1024.833	781.547	-1270.608	1016.912	311.636	-1179.173	798.922	797.877	-1166.286	800.605	306.283	-1251.91	820.568	581.501	-1253.045	828.557	666.273	-1250.651	811.709	487.492	-1316.75	423.914	727.435	-1313.961	406.015	429.968	-1409.116	37.248	775.254	-1403.389	23.257	379.898	-1281.192	-78.055	822.226	-1247.931	-86.086	340.898
72	4.231	-1196.911	1371.14	536.467	-1196.911	1371.14	536.467	-1189.641	1295.34	702.934	-1204.073	1290.901	361.598	-1255.161	1022.51	782.036	-1262.689	1015.333	311.743	-1167.097	796.595	800.499	-1160.749	798.017	304.873	-1246.512	819.035	578.961	-1247.103	827.128	663.703	-1245.857	810.061	484.986	-1313.731	423.345	726.548	-1312.394	404.842	428.684	-1408.44	37.546	775.742	-1406.124	23.09	379.78	-1281.243	-78.771	821.973	-1250.93	-86.976	342.077
73	4.276	-1190.588	1371.241	533.641	-1190.588	1371.241	533.641	-1183.036	1295.355	700.151	-1196.922	1289.427	359.258	-1246.657	1022.895	782.176	-1261.853	1015.173	309.751	-1160.788	796.337	803.355	-1164.028	795.918	303.561	-1243.609	819.372	574.688	-1244.571	827.03	659.478	-1242.543	810.88	480.658	-1312.048	423.662	724.426	-1310.419	405.483	426.866	-1407.91	38.358	775.676	-1405.147	23.54	381.028	-1280.908	-78.274	821.747	-1251.146	-86.843	339.428
74	4.324	-1183.167	1368.884	533.389	-1183.167	1368.884	533.389	-1174.501	1295.94	700.456	-1193.01	1288.964	358.956	-1238.801	1023.839	781.556	-1258.413	1015.351	309.042	-1153.139	797.445	801.001	-1158.914	797.276	302.092	-1240.434	817.856	571.311	-1241.068	824.494	656.06	-1239.731	810.495	477.327	-1310.096	422.137	721.623	-1308.155	405.554	425.715	-1407.137	37.935	774.146	-1403.418	24.148	381.763	-1281.33	-78.411	823.077	-1250.931	-87.741	339.986
75	4.368	-1171.983	1369.249	521.127	-1171.983	1369.249	521.127	-1162.649	1295.498	688.255	-1183.784	1280.891	349.897	-1219.706	1024.83	778.955	-1252.307	1008.21	299.15	-1126.24	802.775	809.3	-1158.288	787.842	289.23	-1230.95	819.111	563.625	-1231.044	826.154	648.34	-1230.845	811.302	469.679	-1303.401	424.888	716.823	-1304.399	406.71	422.739	-1403.286	41.954	773.013	-1402.124	25.432	383.496	-1280.371	-77.559	821.628	-1248.922	-84.735	339.84
76	4.415	-1163.536	1369.29	515.216	-1163.536	1369.29	515.216	-1156.913	1298.716	683.229	-1178.696	1280.194	345.003	-1209.856	1030.741	782.424	-1251.169	1008.937	294.87	-1108.828	814.661	825.624	-1157.303	789.024	283.437	-1227.735	820.445	556.658	-1227.89	826.849	641.278	-1227.564	813.343	462.818	-1299.44	426.96	714.246	-1301.76	409.071	420.609	-1399.683	45.37	773.97	-1401.893	28.693	385.76	-1280.127	-77.178	822.29	-1250.479	-83.733	343.108
77	4.459	-1154.81	1374.334	503.87	-1154.81	1374.334	503.87	-1149.172	1302.952	672.596	-1170.948	1282.169	334.644	-1175.418	1040.189	795.965	-1242.591	1012.207	272.875	-1058.222	843.272	877.204	-1148.694	793.099	244.28	-1218.713	824.255	550.142	-1217.348	830.894	634.985	-1220.226	816.893	456.055	-1288.541	430.051	709.947	-1296.568	411.455	417.017	-1392.267	48.218	770.058	-1398.044	30.032	384.297	-1272.501	-72.624	823.788	-1245.717	-83.296	344.807
78	4.507	-1151.57	1378.612	497.997	-1151.57	1378.612	497.997	-1143.674	1309.224	667.491	-1169.943	1288.017	327.706	-1152.968	1059.842	819.48	-1242.693	1018.592	261.715	-1022.073	880.831	920.617	-1140.383	804.49	221.413	-1215.346	827.284	545.578	-1213.343	834.508	630.574	-1217.567	819.274	451.322	-1283.018	432.918	708.624	-1295.052	412.904	413.22	-1389.252	51.054	770.793	-1395.128	29.989	381.632	-1271.845	-73.248	823.307	-1244.753	-87.811	345.506
79	4.553	-1148.01	1378.945	495.886	-1148.01	1378.945	495.886	-1135.02	1307.844	664.552	-1175.204	1288.708	326.98	-1133.719	1068.999	832.395	-1249.469	1022.363	251.947	-985.314	914.624	948.332	-1136.295	819.763	188.951	-1210.835	828.557	544.855	-1207.729	835.687	629.746	-1214.28	820.65	450.714	-1275.561	434.279	708.311	-1292.64	414.864	412.375	-1385.282	53.741	770.15	-1393.531	32.575	380.435	-1269.375	-72.724	820.209	-1242.885	-84.396	343.713
80	4.599	-1143.548	1377.813	488.089	-1143.548	1377.813	488.089	-1122.544	1321.149	659.479	-1176.722	1286.627	321.796	-1063.25	1128.473	869.769	-1256.688	1031.892	219.543	-893.548	1007.381	994.611	-1152.981	831.486	137.917	-1203.104	828.596	545.379	-1200.726	836.266	630.066	-1205.743	820.089	451.465	-1270.348	435.997	708.271	-1287.854	416.093	411.558	-1380.993	56.724	770.766	-1388.776	34.786	378.367	-1266.118	-70.173	820.769	-1241.085	-85.867	343.781
81	4.645	-1142.876	1379.18	487.4	-1142.876	1379.18	487.4	-1118.126	1324.837	659.012	-1179.508	1289.172	320.968	-1039.021	1144.468	874.463	-1266.274	1037.386	215.373	-856.586	1040.784	997.981	-1169.885	835.389	127.492	-1202.107	828.844	544.999	-1199.551	836.54	629.854	-1204.942	820.308	450.899	-1268.845	435.425	708.496	-1286.674	415.397	410.678	-1378.894	55.235	771.72	-1387.153	33.164	377.118	-1263.423	-71.641	821.707	-1238.11	-86.702	343.376
82	4.692	-1142.052	1381.24	482.667	-1142.052	1381.24	482.667	-1090.184	1327.814	648.705	-1190.161	1293.188	318.09	-941.303	1186.595	857.674	-1299.119	1052.32	205.257	-736.446	1112.956	968.557	-1243.69	843.129	98.636	-1194.952	829.426	544.845	-1190.652	837.56	629.872	-1199.72	820.406	450.552	-1260.32	435.419	710.201	-1284.288	414.613	410.837	-1377.808	56.048	773.402	-1387.482	31.638	378.398	-1261.624	-69.871	826.203	-1235.568	-85.58	344.444
83	4.739	-1142.38	1382.023	475.082	-1142.38	1382.023	475.082	-1083.296	1336.864	639.839	-1197.004	1291.685	314.731	-919.416	1202.968	840.957	-1321.858	1057.474	206.779	-696.738	1142.247	918.632	-1287.443	844.481	100.561	-1193.348	832.945	545.831	-1188.408	841.889	630.47	-1198.827	823.025	451.971	-1257.663	440.815	709.658	-1280.451	418.143	410.66	-1373.865	62.603	774.074	-1381.569	35.9	378.516	-1263.253	-67.922	825.717	-1234.767	-86.475	343.817
84	4.785	-1143.864	1382.729	473.158	-1143.864	1382.729	473.158	-1073.669	1337.864	633.399	-1205.349	1292.274	315.429	-883.548	1211.777	815.684	-1340.626	1061.234	213.18	-652.666	1160.96	874.366	-1325.847	846.492	105.82	-1191.575	833.635	545.179	-1186.094	842.728	629.788	-1197.654	823.551	451.351	-1254.798	441.58	709.572	-1279.51	418.562	410.616	-1372.74	63.842	774.164	-1380.516	36.145	379.075	-1262.906	-67.397	825.796	-1233.826	-86.485	344.558
85	4.832	-1143.298	1382.066	470.9	-1143.298	1382.066	470.9	-1061.714	1337.96	625.212	-1214.767	1291.062	318.012	-843.937	1213.334	773.995	-1374.893	1069.25	233.61	-602.359	1184.67	779.342	-1400.574	851.063	136.278	-1190.674	833.829	545.004	-1184.793	843.038	629.484	-1197.197	823.617	451.319	-1252.693	442.333	709.949	-1278.794	418.951	411.23	-1370.28	65.108	775.605	-1379.505	36.829	380.362	-1261.064	-67.044	825.55	-1234.423	-87.101	344.836
86	4.878	-1142.082	1377.489	469.431	-1142.082	1377.489	469.431	-1038.974	1343.8	612.196	-1229.856	1268.868	337.124	-811.649	1248.017	765.146	-1411.424	1059.428	271.45	-579.811	1199.444	715.045	-1465.252	848.915	171.705	-1174.942	833.553	549.234	-1166.298	841.843	633.141	-1184.529	824.361	456.185	-1240.216	443.849	711.063	-1272.689	423.798	410.596	-1365.324	71.516	778.511	-1378.746	45.25	379.018	-1265.928	-67.225	827.903	-1243.33	-87.974	344.275
87	4.922	-1141.92	1379.762	474.281	-1141.92	1379.762	474.281	-1031.198	1338.526	610.662	-1234.264	1278.637	339.713	-784.517	1224.949	714.888	-1426.112	1074.309	285.436	-558.224	1187.688	635.652	-1491.91	862.987	193.64	-1170.525	833.745	549.432	-1160.872	842.285	633.392	-1181.23	824.275	456.324	-1239.783	444.389	711.7	-1272.017	423.344	410.938	-1366.805	71.675	778.631	-1380.675	44.626	379.438	-1266.771	-67.413	827.157	-1244.681	-88.355	343.685
88	4.972	-1155.107	1379.001	483.126	-1155.107	1379.001	483.126	-1030.101	1348.726	608.678	-1256.249	1271.154	359.479	-768.473	1227.772	649.97	-1457.971	1072.543	320.41	-558.994	1202.316	529.703	-1560.653	866.324	253.643	-1159.583	832.765	549.555	-1144.501	840.823	632.846	-1176.307	823.829	457.188	-1232.741	444.346	710.572	-1270.778	423.462	410.58	-1368.759	75.244	782.077	-1381.41	44.809	380.221	-1271.197	-66.902	827.316	-1244.883	-86.433	339.385
89	5.017	-1129.396	1374.58	478.478	-1129.396	1374.58	478.478	-997.364	1343.207	594.885	-1249.897	1265.781	374.907	-753.573	1219.945	693.025	-1465.094	1081.303	346.314	-583.938	1163.197	529.832	-1571.02	879.381	274.351	-1155.972	830.915	550.745	-1136.066	837.948	632.838	-1178.048	823.116	459.707	-1229.528	443.659	708.757	-1271.82	424.2	410.686	-1366.776	76.889	782.941	-1380.622	46.374	379.395	-1272.2	-67.489	825.179	-1246.342	-85.581	336.315
90	5.065	-1145.334	1370.422	465.988	-1145.334	1370.422	465.988	-1020.751	1341.806	594.279	-1268.664	1247.756	379.3	-751.028	1233.26	569.565	-1471.013	1046.822	353.009	-580.256	1203.447	398.71	-1608.927	857.715	298.33	-1151.409	826.044	548.301	-1129.868	835.182	630.233	-1175.296	815.91	457.441	-1219.042	437.737	706.6	-1274.539	415.917	409.768	-1367.645	74.282	786.254	-1387.62	37.085	379.753	-1270.417	-69.311	829.065	-1245.362	-87.434	335.615
91	5.139	-1146.799	1374.632	462.534	-1146.799	1374.632	462.534	-1009.031	1342.362	576.01	-1277.767	1257.892	377.784	-743.419	1220.411	558.366	-1476.228	1050.237	369.308	-567.283	1208.332	389.593	-1605.575	851.662	324.481	-1148.741	825.582	546.779	-1123.667	834.26	628.061	-1176.547	815.958	456.641	-1220.461	437.497	706.464	-1274.734	414.19	409.19	-1366.214	71.707	787.665	-1386.437	33.458	379.911	-1271.441	-74.884	828.348	-1241.377	-88.29	334.227
